<svg xmlns="http://www.w3.org/2000/svg"><symbol viewBox="0 0 8 4.681333" id="src-1">
<path fill-rule="evenodd" clip-rule="evenodd" d="M4 4.68181C3.93053 4.68181 3.86907 4.65682 3.81563 4.60684L0.0801606 1.11293C0.02672 1.06294 -3.00422e-08 1.00546 -2.72018e-08 0.940481C-2.43615e-08 0.875501 0.02672 0.81802 0.0801606 0.768035L0.480962 0.393153C0.534402 0.343168 0.595858 0.318176 0.66533 0.318176C0.734803 0.318176 0.796259 0.343168 0.849699 0.393153L4 3.33973L7.1503 0.393153C7.20374 0.343168 7.2652 0.318176 7.33467 0.318176C7.40414 0.318176 7.4656 0.343168 7.51904 0.393153L7.91984 0.768036C7.97328 0.81802 8 0.875502 8 0.940482C8 1.00546 7.97328 1.06294 7.91984 1.11293L4.18437 4.60684C4.13093 4.65682 4.06947 4.68181 4 4.68181Z"/>
</symbol><symbol viewBox="0 0 23.516914 24" id="src-2">
<path fill-rule="evenodd" clip-rule="evenodd" d="M10.6659 21.6156C10.6042 21.1816 10.2654 20.8439 9.83978 20.7391C9.41446 20.6343 9.00104 20.4993 8.60193 20.3364C8.19794 20.1756 7.73002 20.2509 7.4272 20.5635L6.33505 21.6909C6.07497 21.9594 5.69211 22.0574 5.35372 21.9481C5.32227 21.938 5.29121 21.926 5.26067 21.9123C5.20936 21.8892 5.15951 21.8609 5.11176 21.8274C5.0001 21.749 4.88984 21.6687 4.78103 21.5866C4.40876 21.3059 4.31589 20.794 4.53414 20.382L4.97863 19.5428C4.98199 19.5365 4.98541 19.5302 4.98887 19.524L5.2701 18.993C5.47348 18.6091 5.40111 18.1416 5.12409 17.8074C4.84129 17.4729 4.58245 17.1175 4.35023 16.7438C4.11761 16.378 3.69582 16.1652 3.26829 16.2399L1.71834 16.5107C1.44289 16.5588 1.16785 16.4894 0.95909 16.3311C0.819663 16.2254 0.709787 16.08 0.649075 15.9034C0.604723 15.7744 0.562508 15.6444 0.522472 15.5134C0.386186 15.0677 0.61197 14.5991 1.0306 14.3941L1.88327 13.9766C1.88884 13.9739 1.89441 13.9712 1.9 13.9686L2.44463 13.7019C2.83404 13.5112 3.05026 13.0918 3.02375 12.6595C3.00798 12.4417 2.99996 12.2218 2.99996 12C2.99996 11.7782 3.00798 11.5583 3.02375 11.3405C3.05024 10.9082 2.83402 10.4889 2.44462 10.2982L1.88844 10.0258C1.88672 10.025 1.88501 10.0242 1.8833 10.0233L1.03063 9.60578C0.611991 9.40078 0.386206 8.93226 0.522495 8.4865C0.562533 8.35555 0.60475 8.22555 0.649104 8.09654C0.800715 7.65558 1.2589 7.40906 1.71824 7.48931L2.65353 7.65271C2.65675 7.65327 2.65996 7.65384 2.66316 7.65443L3.26824 7.76015C3.69559 7.83481 4.1172 7.62229 4.34989 7.25672C4.58234 6.88261 4.84147 6.5268 5.12461 6.19196C5.40118 5.85782 5.47332 5.3907 5.27007 5.00698L4.98691 4.4724C4.98412 4.46735 4.98138 4.46227 4.97867 4.45715L4.53417 3.618C4.31592 3.20596 4.4088 2.69409 4.78106 2.41333C4.88988 2.33126 5.00015 2.25099 5.11181 2.17258C5.23494 2.08612 5.37201 2.03475 5.51213 2.01606C5.80677 1.97672 6.11487 2.0819 6.33501 2.30915L7.42714 3.43652C7.64684 3.66332 7.95346 3.7652 8.25951 3.74261C8.37811 3.73385 8.49662 3.7064 8.60995 3.66028C9.00664 3.49887 9.41745 3.36494 9.84 3.26086C10.2656 3.15602 10.6042 2.81839 10.6659 2.38444L10.8867 0.831341C10.9524 0.369132 11.3292 0.00947426 11.796 0.00169671C11.8639 0.000566376 11.9318 0 11.9999 0C12 0 12 0 12 0C12.0681 0 12.1361 0.00056735 12.2039 0.00169758C12.6707 0.00947498 13.0476 0.369133 13.1133 0.831344L13.3341 2.38444C13.3957 2.81838 13.7346 3.15607 14.1602 3.26091C14.5855 3.3657 14.999 3.50072 15.3981 3.66358C15.8021 3.82438 16.27 3.74909 16.5728 3.43651L17.6649 2.30911C17.9384 2.02685 18.3475 1.93292 18.698 2.07034C18.7639 2.09616 18.8277 2.13016 18.8882 2.17262C18.9999 2.25103 19.1101 2.33129 19.2189 2.41336C19.5912 2.69412 19.6841 3.20598 19.4658 3.61802L19.0213 4.45718C19.018 4.46348 19.0146 4.46974 19.0112 4.47593L18.7299 5.00695C18.5265 5.39088 18.5988 5.85829 18.8758 6.19247C19.1586 6.527 19.4175 6.88246 19.6497 7.25618C19.8824 7.62204 20.3042 7.83477 20.7317 7.76007L22.2816 7.48929C22.5257 7.44666 22.7694 7.49625 22.9669 7.61822C23.0018 7.63975 23.0352 7.66353 23.067 7.68945C23.194 7.79316 23.294 7.93121 23.3509 8.09663C23.3953 8.22563 23.4375 8.35563 23.4775 8.48658C23.6138 8.93234 23.388 9.40086 22.9694 9.60585L22.1167 10.0234C22.1112 10.0261 22.1056 10.0288 22.1001 10.0314L21.5553 10.2981C21.166 10.4888 20.9497 10.9082 20.9762 11.3404C20.992 11.5582 21 11.7782 21 12C21 12.2218 20.992 12.4417 20.9762 12.6595C20.9497 13.0917 21.1659 13.5111 21.5554 13.7018L22.1113 13.9741C22.1131 13.9749 22.1149 13.9758 22.1167 13.9767L22.9693 14.3942L22.9693 14.3942C23.388 14.5992 23.6138 15.0677 23.4775 15.5135C23.4374 15.6445 23.3952 15.7744 23.3509 15.9035C23.1993 16.3444 22.7411 16.5909 22.2817 16.5107L21.3464 16.3473C21.3433 16.3467 21.3402 16.3462 21.3371 16.3456L20.7317 16.2399C20.3044 16.1652 19.8828 16.3777 19.6501 16.7433C19.4176 17.1175 19.1584 17.4733 18.8752 17.8082C18.5988 18.1423 18.5267 18.6094 18.7299 18.993L19.013 19.5274C19.0158 19.5325 19.0186 19.5377 19.0213 19.5428L19.4658 20.382C19.6841 20.794 19.5912 21.3059 19.2189 21.5867C19.1101 21.6687 18.9998 21.749 18.8882 21.8274C18.7926 21.8945 18.6887 21.9405 18.5814 21.9664C18.517 21.982 18.4514 21.9904 18.3857 21.9918C18.1234 21.9974 17.8598 21.8919 17.665 21.6909L16.5728 20.5635C16.3632 20.3471 16.0745 20.2444 15.7827 20.2551C15.7223 20.2573 15.6617 20.2643 15.6017 20.2762C15.53 20.2905 15.459 20.3116 15.39 20.3397C14.9933 20.5011 14.5825 20.6351 14.16 20.7391C13.7344 20.844 13.3957 21.1816 13.3341 21.6156L13.1133 23.1687C13.0476 23.6309 12.6708 23.9905 12.204 23.9983C12.1361 23.9994 12.0681 24 12 24C11.932 24 11.864 23.9994 11.7962 23.9983C11.7962 23.9983 11.7961 23.9983 11.796 23.9983M11.796 23.9983C11.3292 23.9905 10.9524 23.6309 10.8867 23.1687L10.6659 21.6156M10.5892 18.8578C11.0449 18.951 11.5167 19 12 19C12.2416 19 12.4803 18.9878 12.7157 18.9639C12.9579 18.9393 13.1966 18.9023 13.4309 18.8536C16.6106 18.1931 19 15.3756 19 12C19 8.40583 16.2912 5.44434 12.8037 5.04565C12.54 5.0155 12.2718 5 12 5C8.13403 5 5.00002 8.13401 5.00002 12C5.00002 15.3827 7.39946 18.205 10.5892 18.8578Z"/>
</symbol><symbol viewBox="0 0 12 15.898666" id="src-3">
<path fill-rule="evenodd" clip-rule="evenodd" d="M9 14L11.2226 15.4818C11.5549 15.7033 12 15.4651 12 15.0657V1.5C12 0.671573 11.3284 0 10.5 0H1.5C0.671573 0 0 0.671573 0 1.5V15.0657C0 15.4651 0.445072 15.7033 0.77735 15.4818L3 14L5.72265 15.8151C5.8906 15.9271 6.1094 15.9271 6.27735 15.8151L9 14ZM3.5 3C3.22386 3 3 3.22386 3 3.5C3 3.77614 3.22386 4 3.5 4H8.5C8.77614 4 9 3.77614 9 3.5C9 3.22386 8.77614 3 8.5 3H3.5ZM3 6.5C3 6.22386 3.22386 6 3.5 6H8.5C8.77614 6 9 6.22386 9 6.5C9 6.77614 8.77614 7 8.5 7H3.5C3.22386 7 3 6.77614 3 6.5ZM6.5 9C6.22386 9 6 9.22386 6 9.5C6 9.77614 6.22386 10 6.5 10H8.5C8.77614 10 9 9.77614 9 9.5C9 9.22386 8.77614 9 8.5 9H6.5Z"/>
</symbol><symbol viewBox="0 0 14 14" id="src-4">
<path fill-rule="evenodd" clip-rule="evenodd" d="M6 1H2.5C1.67157 1 1 1.67157 1 2.5V11.5C1 12.3284 1.67157 13 2.5 13H6V6V5V1ZM6 0H2.5C1.11929 0 0 1.11929 0 2.5V11.5C0 12.8807 1.11929 14 2.5 14H6H7H11.5C12.8807 14 14 12.8807 14 11.5V6V5V2.5C14 1.11929 12.8807 0 11.5 0H7H6ZM13 5V2.5C13 1.67157 12.3284 1 11.5 1H7V5H13ZM7 6V13H11.5C12.3284 13 13 12.3284 13 11.5V6H7Z"/>
</symbol><symbol viewBox="0 0 12 14" id="src-5">
<path fill-rule="evenodd" clip-rule="evenodd" d="M4.12209 12.4733L2.5 11.5L1 12.4L0.757248 12.5457C0.423986 12.7456 0 12.5056 0 12.1169V11.8338V1.5C0 0.671573 0.671573 0 1.5 0H8.5C9.32843 0 10 0.671573 10 1.5V5.75777C11.206 6.56504 12 7.93979 12 9.5C12 11.9853 9.98528 14 7.5 14C6.15439 14 4.94673 13.4094 4.12209 12.4733ZM9 1.5V5.25606C8.53083 5.09023 8.02595 5 7.5 5C6.42835 5 5.4442 5.3746 4.67133 6H3.5C3.22386 6 3 6.22386 3 6.5C3 6.77614 3.22386 7 3.5 7H3.75777C3.27914 7.71505 3 8.57493 3 9.5C3 9.92905 3.06004 10.3441 3.17219 10.7371L3.0145 10.6425L2.75725 10.4882C2.59891 10.3932 2.40109 10.3932 2.24275 10.4882L1.9855 10.6425L1 11.2338V1.5C1 1.22386 1.22386 1 1.5 1H8.5C8.77614 1 9 1.22386 9 1.5ZM3 3.5C3 3.22386 3.22386 3 3.5 3H6.5C6.77614 3 7 3.22386 7 3.5C7 3.77614 6.77614 4 6.5 4H3.5C3.22386 4 3 3.77614 3 3.5ZM11 9.5C11 11.433 9.433 13 7.5 13C5.567 13 4 11.433 4 9.5C4 7.567 5.567 6 7.5 6C9.433 6 11 7.567 11 9.5ZM9.85355 8.85355C10.0488 8.65829 10.0488 8.34171 9.85355 8.14645C9.65829 7.95118 9.34171 7.95118 9.14645 8.14645L7 10.2929L5.85355 9.14645C5.65829 8.95118 5.34171 8.95118 5.14645 9.14645C4.95118 9.34171 4.95118 9.65829 5.14645 9.85355L6.64645 11.3536C6.84171 11.5488 7.15829 11.5488 7.35355 11.3536L9.85355 8.85355Z"/>
</symbol><symbol viewBox="0 0 16 16" id="src-6">
<path fill-rule="evenodd" clip-rule="evenodd" d="M8 15C4.13401 15 1 11.866 1 8C1 4.13401 4.13401 1 8 1C11.866 1 15 4.13401 15 8C15 11.866 11.866 15 8 15ZM8 16C3.58172 16 0 12.4183 0 8C0 3.58172 3.58172 0 8 0C12.4183 0 16 3.58172 16 8C16 12.4183 12.4183 16 8 16ZM6.35355 3.14645C6.15829 2.95118 5.84171 2.95118 5.64645 3.14645L3.64645 5.14645C3.45118 5.34171 3.45118 5.65829 3.64645 5.85355L5.64645 7.85355C5.84171 8.04882 6.15829 8.04882 6.35355 7.85355C6.54882 7.65829 6.54882 7.34171 6.35355 7.14645L5.20711 6H10.5C10.7761 6 11 5.77614 11 5.5C11 5.22386 10.7761 5 10.5 5H5.20711L6.35355 3.85355C6.54882 3.65829 6.54882 3.34171 6.35355 3.14645ZM10.3536 12.8536C10.1583 13.0488 9.84171 13.0488 9.64645 12.8536C9.45118 12.6583 9.45118 12.3417 9.64645 12.1464L10.7929 11H5.5C5.22386 11 5 10.7761 5 10.5C5 10.2239 5.22386 10 5.5 10H10.7929L9.64645 8.85355C9.45118 8.65829 9.45118 8.34171 9.64645 8.14645C9.84171 7.95118 10.1583 7.95118 10.3536 8.14645L12.3536 10.1464C12.5488 10.3417 12.5488 10.6583 12.3536 10.8536L10.3536 12.8536Z"/>
</symbol><symbol viewBox="0 0 14 14" id="src-7">
<path fill-rule="evenodd" clip-rule="evenodd" d="M4.5 1H9.5C9.77614 1 10 1.22386 10 1.5V4.5C10 4.77614 9.77614 5 9.5 5H8.5H5.5H4.5C4.22386 5 4 4.77614 4 4.5V1.5C4 1.22386 4.22386 1 4.5 1ZM6 6H8V7.5C8 7.77614 8.22386 8 8.5 8H11V9H9.5C8.67157 9 8 9.67157 8 10.5V12.5C8 13.3284 8.67157 14 9.5 14H12.5C13.3284 14 14 13.3284 14 12.5V10.5C14 9.67157 13.3284 9 12.5 9H12V7.5C12 7.22386 11.7761 7 11.5 7H9V6H9.5C10.3284 6 11 5.32843 11 4.5V1.5C11 0.671573 10.3284 0 9.5 0H4.5C3.67157 0 3 0.671573 3 1.5V4.5C3 5.32843 3.67157 6 4.5 6H5V7H2.5C2.22386 7 2 7.22386 2 7.5V9H1.5C0.671573 9 0 9.67157 0 10.5V12.5C0 13.3284 0.671573 14 1.5 14H4.5C5.32843 14 6 13.3284 6 12.5V10.5C6 9.67157 5.32843 9 4.5 9H3V8H5.5C5.77614 8 6 7.77614 6 7.5V6ZM2.5 10H1.5C1.22386 10 1 10.2239 1 10.5V12.5C1 12.7761 1.22386 13 1.5 13H4.5C4.77614 13 5 12.7761 5 12.5V10.5C5 10.2239 4.77614 10 4.5 10H2.5ZM9.5 10H11.5H12.5C12.7761 10 13 10.2239 13 10.5V12.5C13 12.7761 12.7761 13 12.5 13H9.5C9.22386 13 9 12.7761 9 12.5V10.5C9 10.2239 9.22386 10 9.5 10Z"/>
</symbol><symbol viewBox="0 0 16 12" id="src-8">
<path fill-rule="evenodd" clip-rule="evenodd" d="M14.5 1H5.5C5.22386 1 5 1.22386 5 1.5V3H10.5C11.3284 3 12 3.67157 12 4.5V8H14.5C14.7761 8 15 7.77614 15 7.5V1.5C15 1.22386 14.7761 1 14.5 1ZM12 9V10.5C12 11.3284 11.3284 12 10.5 12H1.5C0.671573 12 0 11.3284 0 10.5V4.5C0 3.67157 0.671573 3 1.5 3H4V1.5C4 0.671573 4.67157 0 5.5 0H14.5C15.3284 0 16 0.671573 16 1.5V7.5C16 8.32843 15.3284 9 14.5 9H12ZM1.5 4H10.5C10.7761 4 11 4.22386 11 4.5V5H1V4.5C1 4.22386 1.22386 4 1.5 4ZM11 10.5V6H1V10.5C1 10.7761 1.22386 11 1.5 11H10.5C10.7761 11 11 10.7761 11 10.5ZM6.5 7C6.22386 7 6 7.22386 6 7.5C6 7.77614 6.22386 8 6.5 8H9.5C9.77614 8 10 7.77614 10 7.5C10 7.22386 9.77614 7 9.5 7H6.5Z"/>
</symbol><symbol viewBox="0 0 16 16" id="src-9">
<path fill-rule="evenodd" clip-rule="evenodd" d="M11 4C11 5.65685 9.65685 7 8 7C6.34315 7 5 5.65685 5 4C5 2.34315 6.34315 1 8 1C9.65685 1 11 2.34315 11 4ZM12 4C12 6.20914 10.2091 8 8 8C5.79086 8 4 6.20914 4 4C4 1.79086 5.79086 0 8 0C10.2091 0 12 1.79086 12 4ZM1.02242 15C1.27504 12.1968 3.63098 10 6.5 10H9.5C12.369 10 14.725 12.1967 14.9776 15H1.02242ZM9.5 9C12.9216 9 15.7257 11.6438 15.9811 15C15.9936 15.165 16 15.3318 16 15.5V16H15H1H0V15.5C0 15.3318 0.00639146 15.165 0.0189448 15C0.274257 11.6438 3.07839 9 6.5 9H9.5Z"/>
</symbol><symbol viewBox="0 0 16 16" id="src-10">
<path fill-rule="evenodd" clip-rule="evenodd" d="M8 15C11.866 15 15 11.866 15 8C15 4.13401 11.866 1 8 1C4.13401 1 1 4.13401 1 8C1 11.866 4.13401 15 8 15ZM8 16C12.4183 16 16 12.4183 16 8C16 3.58172 12.4183 0 8 0C3.58172 0 0 3.58172 0 8C0 12.4183 3.58172 16 8 16ZM7.35355 4.64645C7.54882 4.84171 7.54882 5.15829 7.35355 5.35355L4.70711 8L7.35355 10.6464C7.54882 10.8417 7.54882 11.1583 7.35355 11.3536C7.15829 11.5488 6.84171 11.5488 6.64645 11.3536L3.64645 8.35355C3.45118 8.15829 3.45118 7.84171 3.64645 7.64645L6.64645 4.64645C6.84171 4.45118 7.15829 4.45118 7.35355 4.64645ZM11.3536 5.35355C11.5488 5.15829 11.5488 4.84171 11.3536 4.64645C11.1583 4.45118 10.8417 4.45118 10.6464 4.64645L7.64645 7.64645C7.45118 7.84171 7.45118 8.15829 7.64645 8.35355L10.6464 11.3536C10.8417 11.5488 11.1583 11.5488 11.3536 11.3536C11.5488 11.1583 11.5488 10.8417 11.3536 10.6464L8.70711 8L11.3536 5.35355Z"/>
</symbol><symbol viewBox="0 0 12 16" id="src-11">
<path fill-rule="evenodd" clip-rule="evenodd" d="M11 6C11 8.14202 9.68956 10.4123 8.21913 12.2503C7.50159 13.1472 6.78159 13.8975 6.24042 14.4236C6.15548 14.5062 6.0751 14.5831 6 14.6541C5.9249 14.5831 5.84452 14.5062 5.75958 14.4236C5.21841 13.8975 4.49841 13.1472 3.78087 12.2503C2.31044 10.4123 1 8.14202 1 6C1 3.23858 3.23858 1 6 1C8.76142 1 11 3.23858 11 6ZM12 6C12 11 6 16 6 16C6 16 0 11 0 6C0 2.68629 2.68629 0 6 0C9.31371 0 12 2.68629 12 6ZM8 6C8 7.10457 7.10457 8 6 8C4.89543 8 4 7.10457 4 6C4 4.89543 4.89543 4 6 4C7.10457 4 8 4.89543 8 6ZM9 6C9 7.65685 7.65685 9 6 9C4.34315 9 3 7.65685 3 6C3 4.34315 4.34315 3 6 3C7.65685 3 9 4.34315 9 6Z"/>
</symbol><symbol viewBox="0 0 14 14" id="src-12">
<path fill-rule="evenodd" clip-rule="evenodd" d="M12.5 1H1.5C1.22386 1 1 1.22386 1 1.5V12.5C1 12.7761 1.22386 13 1.5 13H12.5C12.7761 13 13 12.7761 13 12.5V1.5C13 1.22386 12.7761 1 12.5 1ZM14 1.5C14 0.671573 13.3284 0 12.5 0H1.5C0.671574 0 0 0.671573 0 1.5V12.5C0 13.3284 0.671573 14 1.5 14H12.5C13.3284 14 14 13.3284 14 12.5V1.5ZM10.5 3C10.7761 3 11 3.22386 11 3.5C11 3.77614 10.7761 4 10.5 4H3.5C3.22386 4 3 3.77614 3 3.5C3 3.22386 3.22386 3 3.5 3H10.5ZM11 6.5C11 6.22386 10.7761 6 10.5 6H3.5C3.22386 6 3 6.22386 3 6.5C3 6.77614 3.22386 7 3.5 7H10.5C10.7761 7 11 6.77614 11 6.5ZM10.5 9C10.7761 9 11 9.22386 11 9.5C11 9.77614 10.7761 10 10.5 10H3.5C3.22386 10 3 9.77614 3 9.5C3 9.22386 3.22386 9 3.5 9H10.5Z"/>
</symbol><symbol viewBox="0 0 8 4"  id="src-13">
<path fill-rule="evenodd" clip-rule="evenodd" d="M3.64645 3.64645L0.853553 0.853553C0.538571 0.538571 0.761654 0 1.20711 0H6.79289C7.23835 0 7.46143 0.53857 7.14645 0.853553L4.35355 3.64645C4.15829 3.84171 3.84171 3.84171 3.64645 3.64645Z"/>
</symbol><symbol viewBox="0 0 18 4" id="src-14">
<path fill-rule="evenodd" clip-rule="evenodd" d="M2 3.75C2.46413 3.75 2.90925 3.56563 3.23744 3.23744C3.56563 2.90925 3.75 2.46413 3.75 2C3.75 1.53587 3.56563 1.09075 3.23744 0.762563C2.90925 0.434374 2.46413 0.25 2 0.25C1.53587 0.25 1.09075 0.434374 0.762563 0.762563C0.434375 1.09075 0.25 1.53587 0.25 2C0.25 2.46413 0.434375 2.90925 0.762563 3.23744C1.09075 3.56563 1.53587 3.75 2 3.75ZM16 3.75C16.4641 3.75 16.9092 3.56563 17.2374 3.23744C17.5656 2.90925 17.75 2.46413 17.75 2C17.75 1.53587 17.5656 1.09075 17.2374 0.762563C16.9092 0.434374 16.4641 0.25 16 0.25C15.5359 0.25 15.0908 0.434374 14.7626 0.762563C14.4344 1.09075 14.25 1.53587 14.25 2C14.25 2.46413 14.4344 2.90925 14.7626 3.23744C15.0908 3.56563 15.5359 3.75 16 3.75ZM10.75 2C10.75 2.46413 10.5656 2.90925 10.2374 3.23744C9.90925 3.56563 9.46413 3.75 9 3.75C8.53587 3.75 8.09075 3.56563 7.76256 3.23744C7.43437 2.90925 7.25 2.46413 7.25 2C7.25 1.53587 7.43437 1.09075 7.76256 0.762563C8.09075 0.434374 8.53587 0.25 9 0.25C9.46413 0.25 9.90925 0.434374 10.2374 0.762563C10.5656 1.09075 10.75 1.53587 10.75 2Z"/>
</symbol></svg>
